<?xml version="1.0" encoding="UTF-8" ?>
<svg xmlns="http://www.w3.org/2000/svg" xmlns:xlink="http://www.w3.org/1999/xlink" width="1201pt" height="760pt" viewBox="0.00 0.00 1200.64 760.30">
<g id="graph0" class="graph" transform="scale(1 1) rotate(0) translate(4 756.3)">
<title>%0</title>
<polygon fill="#ffffff" stroke="transparent" points="-4,4 -4,-756.3 1196.6404,-756.3 1196.6404,4 -4,4"/>
<g id="clust1" class="cluster">
<title>clusterAbort</title>
<polygon fill="none" stroke="#000000" points="275.4732,-46.5 275.4732,-399.5 853.0523,-399.5 853.0523,-46.5 275.4732,-46.5"/>
<text text-anchor="middle" x="564.2628" y="-382.9" font-family="Times,serif" font-size="14.00" fill="#000000">Abort</text>
</g>
<g id="clust2" class="cluster">
<title>clusterRunning</title>
<polygon fill="none" stroke="#000000" points="39.2073,-610.5 39.2073,-688.5 110.8637,-688.5 110.8637,-610.5 39.2073,-610.5"/>
<text text-anchor="middle" x="75.0355" y="-671.9" font-family="Times,serif" font-size="14.00" fill="#000000">Running</text>
</g>
<!-- InitializeFailed -->
<g id="node1" class="node">
<title>InitializeFailed</title>
<path fill="none" stroke="#000000" d="M295.4732,-165.5C295.4732,-165.5 372.2236,-165.5 372.2236,-165.5 378.2236,-165.5 384.2236,-171.5 384.2236,-177.5 384.2236,-177.5 384.2236,-189.5 384.2236,-189.5 384.2236,-195.5 378.2236,-201.5 372.2236,-201.5 372.2236,-201.5 295.4732,-201.5 295.4732,-201.5 289.4732,-201.5 283.4732,-195.5 283.4732,-189.5 283.4732,-189.5 283.4732,-177.5 283.4732,-177.5 283.4732,-171.5 289.4732,-165.5 295.4732,-165.5"/>
<text text-anchor="middle" x="333.8484" y="-179.4" font-family="Times,serif" font-size="14.00" fill="#000000">InitializeFailed</text>
</g>
<!-- ResetFailed -->
<g id="node7" class="node">
<title>ResetFailed</title>
<path fill="none" stroke="#000000" d="M774.9583,-270.5C774.9583,-270.5 833.0523,-270.5 833.0523,-270.5 839.0523,-270.5 845.0523,-276.5 845.0523,-282.5 845.0523,-282.5 845.0523,-294.5 845.0523,-294.5 845.0523,-300.5 839.0523,-306.5 833.0523,-306.5 833.0523,-306.5 774.9583,-306.5 774.9583,-306.5 768.9583,-306.5 762.9583,-300.5 762.9583,-294.5 762.9583,-294.5 762.9583,-282.5 762.9583,-282.5 762.9583,-276.5 768.9583,-270.5 774.9583,-270.5"/>
<text text-anchor="middle" x="804.0053" y="-284.4" font-family="Times,serif" font-size="14.00" fill="#000000">ResetFailed</text>
</g>
<!-- InitializeFailed&#45;&gt;ResetFailed -->
<g id="edge9" class="edge">
<title>InitializeFailed-&gt;ResetFailed</title>
<path fill="none" stroke="#000000" d="M384.3622,-177.9064C465.4209,-171.3409 627.2145,-168.3361 743.4292,-231.5 758.0675,-239.4561 771.8153,-251.8184 782.502,-262.9993"/>
<polygon fill="#000000" stroke="#000000" points="780.039,-265.4917 789.3847,-270.4826 785.1912,-260.753 780.039,-265.4917"/>
<text text-anchor="middle" x="576.3229" y="-194.7" font-family="Times,serif" font-size="14.00" fill="#000000">Reset [Function]</text>
</g>
<!-- Idle -->
<g id="node12" class="node">
<title>Idle</title>
<path fill="none" stroke="#000000" d="M561.3229,-411.5C561.3229,-411.5 591.3229,-411.5 591.3229,-411.5 597.3229,-411.5 603.3229,-417.5 603.3229,-423.5 603.3229,-423.5 603.3229,-435.5 603.3229,-435.5 603.3229,-441.5 597.3229,-447.5 591.3229,-447.5 591.3229,-447.5 561.3229,-447.5 561.3229,-447.5 555.3229,-447.5 549.3229,-441.5 549.3229,-435.5 549.3229,-435.5 549.3229,-423.5 549.3229,-423.5 549.3229,-417.5 555.3229,-411.5 561.3229,-411.5"/>
<text text-anchor="middle" x="576.3229" y="-425.4" font-family="Times,serif" font-size="14.00" fill="#000000">Idle</text>
</g>
<!-- InitializeFailed&#45;&gt;Idle -->
<g id="edge10" class="edge">
<title>InitializeFailed-&gt;Idle</title>
<path fill="none" stroke="#000000" d="M384.0674,-201.5723C387.358,-204.1702 390.3271,-207.13 392.772,-210.5 434.0164,-267.3492 363.3399,-315.701 410.772,-367.5 439.4805,-398.8516 466.6984,-367.2011 504.4726,-386.7 514.1966,-391.7195 513.4432,-397.3177 522.4726,-403.5 527.8693,-407.195 533.8711,-410.646 539.8534,-413.7493"/>
<polygon fill="#000000" stroke="#000000" points="538.6305,-417.0484 549.1481,-418.3248 541.7221,-410.7681 538.6305,-417.0484"/>
<text text-anchor="middle" x="457.6223" y="-390.7" font-family="Times,serif" font-size="14.00" fill="#000000">Reset [Function]</text>
</g>
<!-- StartFailed -->
<g id="node2" class="node">
<title>StartFailed</title>
<path fill="none" stroke="#000000" d="M307.1324,-220.5C307.1324,-220.5 360.5644,-220.5 360.5644,-220.5 366.5644,-220.5 372.5644,-226.5 372.5644,-232.5 372.5644,-232.5 372.5644,-244.5 372.5644,-244.5 372.5644,-250.5 366.5644,-256.5 360.5644,-256.5 360.5644,-256.5 307.1324,-256.5 307.1324,-256.5 301.1324,-256.5 295.1324,-250.5 295.1324,-244.5 295.1324,-244.5 295.1324,-232.5 295.1324,-232.5 295.1324,-226.5 301.1324,-220.5 307.1324,-220.5"/>
<text text-anchor="middle" x="333.8484" y="-234.4" font-family="Times,serif" font-size="14.00" fill="#000000">StartFailed</text>
</g>
<!-- StartFailed&#45;&gt;ResetFailed -->
<g id="edge17" class="edge">
<title>StartFailed-&gt;ResetFailed</title>
<path fill="none" stroke="#000000" d="M372.9803,-233.15C429.9697,-226.3621 538.9538,-217.1748 630.1732,-231.7 672.6939,-238.4707 718.9463,-254.0074 753.0443,-267.1227"/>
<polygon fill="#000000" stroke="#000000" points="752.1835,-270.5441 762.7715,-270.9251 754.7321,-264.0245 752.1835,-270.5441"/>
<text text-anchor="middle" x="576.3229" y="-236.7" font-family="Times,serif" font-size="14.00" fill="#000000">Reset [Function]</text>
</g>
<!-- StartFailed&#45;&gt;Idle -->
<g id="edge18" class="edge">
<title>StartFailed-&gt;Idle</title>
<path fill="none" stroke="#000000" d="M372.7662,-249.5521C380.4586,-253.4285 387.7087,-258.608 392.772,-265.5 430.4363,-316.768 365.9244,-362.3812 410.772,-407.5 419.6609,-416.4426 492.9065,-423.39 538.9449,-426.9247"/>
<polygon fill="#000000" stroke="#000000" points="538.9319,-430.4334 549.1648,-427.6879 539.4533,-423.4528 538.9319,-430.4334"/>
<text text-anchor="middle" x="457.6223" y="-427.7" font-family="Times,serif" font-size="14.00" fill="#000000">Reset [Function]</text>
</g>
<!-- PauseFailed -->
<g id="node3" class="node">
<title>PauseFailed</title>
<path fill="none" stroke="#000000" d="M304.0237,-330.5C304.0237,-330.5 363.6731,-330.5 363.6731,-330.5 369.6731,-330.5 375.6731,-336.5 375.6731,-342.5 375.6731,-342.5 375.6731,-354.5 375.6731,-354.5 375.6731,-360.5 369.6731,-366.5 363.6731,-366.5 363.6731,-366.5 304.0237,-366.5 304.0237,-366.5 298.0237,-366.5 292.0237,-360.5 292.0237,-354.5 292.0237,-354.5 292.0237,-342.5 292.0237,-342.5 292.0237,-336.5 298.0237,-330.5 304.0237,-330.5"/>
<text text-anchor="middle" x="333.8484" y="-344.4" font-family="Times,serif" font-size="14.00" fill="#000000">PauseFailed</text>
</g>
<!-- PauseFailed&#45;&gt;ResetFailed -->
<g id="edge28" class="edge">
<title>PauseFailed-&gt;ResetFailed</title>
<path fill="none" stroke="#000000" d="M375.7843,-334.3133C382.1729,-330.6396 388.1611,-326.0931 392.772,-320.5 413.2058,-295.7137 385.3861,-270.1839 410.772,-250.5 427.2272,-237.7408 487.2743,-238.7617 504.4726,-250.5 522.6055,-262.8763 504.3397,-284.1237 522.4726,-296.5 562.0085,-323.4844 582.3189,-297.6006 630.1732,-296.5 671.3675,-295.5526 718.0094,-293.3439 752.6012,-291.4868"/>
<polygon fill="#000000" stroke="#000000" points="753.1358,-294.9629 762.9303,-290.9235 752.7546,-287.9733 753.1358,-294.9629"/>
<text text-anchor="middle" x="576.3229" y="-313.7" font-family="Times,serif" font-size="14.00" fill="#000000">Reset [Function]</text>
</g>
<!-- PauseFailed&#45;&gt;Idle -->
<g id="edge29" class="edge">
<title>PauseFailed-&gt;Idle</title>
<path fill="none" stroke="#000000" d="M337.6698,-366.6397C345.3388,-397.8802 365.8664,-461.0277 410.772,-487.5 446.647,-508.6487 465.2059,-501.371 504.4726,-487.5 523.1735,-480.8939 540.5801,-467.1267 553.5756,-454.6629"/>
<polygon fill="#000000" stroke="#000000" points="556.1015,-457.0867 560.6939,-447.5389 551.1498,-452.1389 556.1015,-457.0867"/>
<text text-anchor="middle" x="457.6223" y="-504.7" font-family="Times,serif" font-size="14.00" fill="#000000">Reset [Function]</text>
</g>
<!-- ResumeFailed -->
<g id="node4" class="node">
<title>ResumeFailed</title>
<path fill="none" stroke="#000000" d="M297.8014,-110.5C297.8014,-110.5 369.8954,-110.5 369.8954,-110.5 375.8954,-110.5 381.8954,-116.5 381.8954,-122.5 381.8954,-122.5 381.8954,-134.5 381.8954,-134.5 381.8954,-140.5 375.8954,-146.5 369.8954,-146.5 369.8954,-146.5 297.8014,-146.5 297.8014,-146.5 291.8014,-146.5 285.8014,-140.5 285.8014,-134.5 285.8014,-134.5 285.8014,-122.5 285.8014,-122.5 285.8014,-116.5 291.8014,-110.5 297.8014,-110.5"/>
<text text-anchor="middle" x="333.8484" y="-124.4" font-family="Times,serif" font-size="14.00" fill="#000000">ResumeFailed</text>
</g>
<!-- ResumeFailed&#45;&gt;ResetFailed -->
<g id="edge30" class="edge">
<title>ResumeFailed-&gt;ResetFailed</title>
<path fill="none" stroke="#000000" d="M381.9226,-122.1306C464.8907,-113.8788 636.3409,-109.2114 743.4292,-192.5 766.3624,-210.3364 782.9711,-239.4658 792.9342,-260.9667"/>
<polygon fill="#000000" stroke="#000000" points="789.7923,-262.5157 797.0431,-270.2407 796.1923,-259.6801 789.7923,-262.5157"/>
<text text-anchor="middle" x="576.3229" y="-141.7" font-family="Times,serif" font-size="14.00" fill="#000000">Reset [Function]</text>
</g>
<!-- ResumeFailed&#45;&gt;Idle -->
<g id="edge31" class="edge">
<title>ResumeFailed-&gt;Idle</title>
<path fill="none" stroke="#000000" d="M382.0788,-145.2008C386.1451,-148.1168 389.8218,-151.5238 392.772,-155.5 428.0522,-203.0508 370.3212,-244.2621 410.772,-287.5 439.8139,-318.543 474.6892,-276.3677 504.4726,-306.7 535.1316,-337.924 495.9056,-368.7278 522.4726,-403.5 527.0224,-409.4551 533.2882,-414.1191 539.9404,-417.7466"/>
<polygon fill="#000000" stroke="#000000" points="538.5882,-420.9785 549.1262,-422.0747 541.5718,-414.6462 538.5882,-420.9785"/>
<text text-anchor="middle" x="457.6223" y="-311.7" font-family="Times,serif" font-size="14.00" fill="#000000">Reset [Function]</text>
</g>
<!-- PurgeFailed -->
<g id="node5" class="node">
<title>PurgeFailed</title>
<path fill="none" stroke="#000000" d="M304.023,-55.5C304.023,-55.5 363.6738,-55.5 363.6738,-55.5 369.6738,-55.5 375.6738,-61.5 375.6738,-67.5 375.6738,-67.5 375.6738,-79.5 375.6738,-79.5 375.6738,-85.5 369.6738,-91.5 363.6738,-91.5 363.6738,-91.5 304.023,-91.5 304.023,-91.5 298.023,-91.5 292.023,-85.5 292.023,-79.5 292.023,-79.5 292.023,-67.5 292.023,-67.5 292.023,-61.5 298.023,-55.5 304.023,-55.5"/>
<text text-anchor="middle" x="333.8484" y="-69.4" font-family="Times,serif" font-size="14.00" fill="#000000">PurgeFailed</text>
</g>
<!-- PurgeFailed&#45;&gt;ResetFailed -->
<g id="edge32" class="edge">
<title>PurgeFailed-&gt;ResetFailed</title>
<path fill="none" stroke="#000000" d="M375.8852,-66.4555C458.3826,-55.24 642.2392,-43.5433 743.4292,-140.5 777.4362,-173.0843 792.9731,-227.4733 799.5856,-260.4606"/>
<polygon fill="#000000" stroke="#000000" points="796.1583,-261.1744 801.4311,-270.3639 803.0398,-259.892 796.1583,-261.1744"/>
<text text-anchor="middle" x="576.3229" y="-81.7" font-family="Times,serif" font-size="14.00" fill="#000000">Reset [Function]</text>
</g>
<!-- PurgeFailed&#45;&gt;Idle -->
<g id="edge33" class="edge">
<title>PurgeFailed-&gt;Idle</title>
<path fill="none" stroke="#000000" d="M375.8376,-89.2212C381.8559,-92.4493 387.7129,-96.2009 392.772,-100.5 460.5918,-158.1312 473.0133,-183.4462 504.4726,-266.7 526.1493,-324.0652 486.547,-353.801 522.4726,-403.5 526.9048,-409.6314 533.1774,-414.379 539.8834,-418.0336"/>
<polygon fill="#000000" stroke="#000000" points="538.6228,-421.3077 549.1645,-422.3672 541.5843,-414.965 538.6228,-421.3077"/>
<text text-anchor="middle" x="457.6223" y="-271.7" font-family="Times,serif" font-size="14.00" fill="#000000">Reset [Function]</text>
</g>
<!-- EndFailed -->
<g id="node6" class="node">
<title>EndFailed</title>
<path fill="none" stroke="#000000" d="M309.0756,-275.5C309.0756,-275.5 358.6212,-275.5 358.6212,-275.5 364.6212,-275.5 370.6212,-281.5 370.6212,-287.5 370.6212,-287.5 370.6212,-299.5 370.6212,-299.5 370.6212,-305.5 364.6212,-311.5 358.6212,-311.5 358.6212,-311.5 309.0756,-311.5 309.0756,-311.5 303.0756,-311.5 297.0756,-305.5 297.0756,-299.5 297.0756,-299.5 297.0756,-287.5 297.0756,-287.5 297.0756,-281.5 303.0756,-275.5 309.0756,-275.5"/>
<text text-anchor="middle" x="333.8484" y="-289.4" font-family="Times,serif" font-size="14.00" fill="#000000">EndFailed</text>
</g>
<!-- EndFailed&#45;&gt;ResetFailed -->
<g id="edge34" class="edge">
<title>EndFailed-&gt;ResetFailed</title>
<path fill="none" stroke="#000000" d="M370.8422,-279.0015C378.4659,-275.1869 386.1732,-270.6674 392.772,-265.5 402.7187,-257.711 399.3555,-248.91 410.772,-243.5 429.5885,-234.5832 484.2073,-238.716 504.4726,-243.5 513.1776,-245.555 513.9158,-249.896 522.4726,-252.5 600.3569,-276.2017 694.9735,-284.3047 752.2854,-287.0711"/>
<polygon fill="#000000" stroke="#000000" points="752.3942,-290.5794 762.5402,-287.5281 752.7059,-283.5863 752.3942,-290.5794"/>
<text text-anchor="middle" x="576.3229" y="-279.7" font-family="Times,serif" font-size="14.00" fill="#000000">Reset [Function]</text>
</g>
<!-- EndFailed&#45;&gt;Idle -->
<g id="edge35" class="edge">
<title>EndFailed-&gt;Idle</title>
<path fill="none" stroke="#000000" d="M370.8614,-303.7141C379.2261,-307.6762 387.2545,-313.1042 392.772,-320.5 426.8612,-366.1936 367.7253,-410.1242 410.772,-447.5 446.0417,-478.1233 502.7313,-462.9244 539.7568,-447.5434"/>
<polygon fill="#000000" stroke="#000000" points="541.4054,-450.6433 549.1824,-443.4482 538.6159,-444.2231 541.4054,-450.6433"/>
<text text-anchor="middle" x="457.6223" y="-468.7" font-family="Times,serif" font-size="14.00" fill="#000000">Reset [Function]</text>
</g>
<!-- ResetFailed&#45;&gt;Idle -->
<g id="edge37" class="edge">
<title>ResetFailed-&gt;Idle</title>
<path fill="none" stroke="#000000" d="M795.286,-306.5564C785.3394,-325.1991 767.3116,-353.7234 743.4292,-369.5 707.0722,-393.5172 688.4804,-376.1475 648.1732,-392.7 639.543,-396.2441 638.3824,-399.0672 630.1732,-403.5 624.5381,-406.5428 618.4919,-409.6289 612.5599,-412.5607"/>
<polygon fill="#000000" stroke="#000000" points="610.8695,-409.4908 603.4078,-417.0125 613.9314,-415.7857 610.8695,-409.4908"/>
<text text-anchor="middle" x="695.8012" y="-396.7" font-family="Times,serif" font-size="14.00" fill="#000000">Reset [Function]</text>
</g>
<!-- Abort -->
<g id="node14" class="node">
<title>Abort</title>
<path fill="none" stroke="#000000" d="M1150.6404,-416.5C1150.6404,-416.5 1180.6404,-416.5 1180.6404,-416.5 1186.6404,-416.5 1192.6404,-422.5 1192.6404,-428.5 1192.6404,-428.5 1192.6404,-440.5 1192.6404,-440.5 1192.6404,-446.5 1186.6404,-452.5 1180.6404,-452.5 1180.6404,-452.5 1150.6404,-452.5 1150.6404,-452.5 1144.6404,-452.5 1138.6404,-446.5 1138.6404,-440.5 1138.6404,-440.5 1138.6404,-428.5 1138.6404,-428.5 1138.6404,-422.5 1144.6404,-416.5 1150.6404,-416.5"/>
<text text-anchor="middle" x="1165.6404" y="-430.4" font-family="Times,serif" font-size="14.00" fill="#000000">Abort</text>
</g>
<!-- ResetFailed&#45;&gt;Abort -->
<g id="edge36" class="edge">
<title>ResetFailed-&gt;Abort</title>
<path fill="none" stroke="#000000" d="M845.0862,-285.5415C899.8669,-283.4539 998.25,-286.3253 1069.9826,-325.7 1105.0891,-344.9703 1133.5306,-382.3593 1150.0168,-407.8732"/>
<polygon fill="#000000" stroke="#000000" points="1147.0594,-409.7452 1155.3409,-416.3534 1152.9879,-406.0231 1147.0594,-409.7452"/>
<text text-anchor="middle" x="1023.1323" y="-330.7" font-family="Times,serif" font-size="14.00" fill="#000000">Reset [Function]</text>
</g>
<!-- Paused -->
<g id="node8" class="node">
<title>Paused</title>
<path fill="none" stroke="#000000" d="M59.2073,-619.5C59.2073,-619.5 90.8637,-619.5 90.8637,-619.5 96.8637,-619.5 102.8637,-625.5 102.8637,-631.5 102.8637,-631.5 102.8637,-643.5 102.8637,-643.5 102.8637,-649.5 96.8637,-655.5 90.8637,-655.5 90.8637,-655.5 59.2073,-655.5 59.2073,-655.5 53.2073,-655.5 47.2073,-649.5 47.2073,-643.5 47.2073,-643.5 47.2073,-631.5 47.2073,-631.5 47.2073,-625.5 53.2073,-619.5 59.2073,-619.5"/>
<text text-anchor="middle" x="75.0355" y="-633.4" font-family="Times,serif" font-size="14.00" fill="#000000">Paused</text>
</g>
<!-- Paused&#45;&gt;ResumeFailed -->
<g id="edge24" class="edge">
<title>Paused-&gt;ResumeFailed</title>
<path fill="none" stroke="#000000" d="M100.0894,-619.3555C141.4092,-587.7777 222.676,-518.3084 256.9248,-437.5 281.4287,-379.6842 239.3424,-207.2398 274.9248,-155.5 275.8215,-154.1962 276.7974,-152.9541 277.8413,-151.771"/>
<polygon fill="#000000" stroke="#000000" points="280.5067,-154.0807 285.5945,-144.7874 275.8218,-148.8795 280.5067,-154.0807"/>
<text text-anchor="middle" x="192.1979" y="-598.7" font-family="Times,serif" font-size="14.00" fill="#000000">Resume [Function]</text>
</g>
<!-- Paused&#45;&gt;PurgeFailed -->
<g id="edge26" class="edge">
<title>Paused-&gt;PurgeFailed</title>
<path fill="none" stroke="#000000" d="M76.3314,-619.136C81.112,-554.3236 98.9731,-336.7996 127.471,-273.7 169.0824,-181.5647 194.2969,-161.4882 274.9248,-100.5 277.5274,-98.5314 280.2964,-96.6623 283.1609,-94.8954"/>
<polygon fill="#000000" stroke="#000000" points="284.9944,-97.8794 291.9693,-89.9044 281.5434,-91.7892 284.9944,-97.8794"/>
<text text-anchor="middle" x="192.1979" y="-278.7" font-family="Times,serif" font-size="14.00" fill="#000000">Purge [Function]</text>
</g>
<!-- Paused&#45;&gt;Idle -->
<g id="edge27" class="edge">
<title>Paused-&gt;Idle</title>
<path fill="none" stroke="#000000" d="M103.1068,-641.3926C178.0522,-650.1298 385.2387,-663.2186 504.4726,-561.5 521.1746,-547.2515 512.6042,-535.1109 522.4726,-515.5 532.8286,-494.9202 546.6575,-472.9229 557.7083,-456.3274"/>
<polygon fill="#000000" stroke="#000000" points="560.8325,-457.9544 563.5221,-447.7067 555.0289,-454.0405 560.8325,-457.9544"/>
<text text-anchor="middle" x="333.8484" y="-647.7" font-family="Times,serif" font-size="14.00" fill="#000000">Purge [Function]</text>
</g>
<!-- Running -->
<g id="node15" class="node">
<title>Running</title>
<path fill="none" stroke="#000000" d="M1003.0187,-584.5C1003.0187,-584.5 1043.2459,-584.5 1043.2459,-584.5 1049.2459,-584.5 1055.2459,-590.5 1055.2459,-596.5 1055.2459,-596.5 1055.2459,-608.5 1055.2459,-608.5 1055.2459,-614.5 1049.2459,-620.5 1043.2459,-620.5 1043.2459,-620.5 1003.0187,-620.5 1003.0187,-620.5 997.0187,-620.5 991.0187,-614.5 991.0187,-608.5 991.0187,-608.5 991.0187,-596.5 991.0187,-596.5 991.0187,-590.5 997.0187,-584.5 1003.0187,-584.5"/>
<text text-anchor="middle" x="1023.1323" y="-598.4" font-family="Times,serif" font-size="14.00" fill="#000000">Running</text>
</g>
<!-- Paused&#45;&gt;Running -->
<g id="edge25" class="edge">
<title>Paused-&gt;Running</title>
<path fill="none" stroke="#000000" d="M103.0961,-651.0107C110.84,-654.2564 119.3491,-657.3904 127.471,-659.5 216.7981,-682.7016 241.5573,-682.5 333.8484,-682.5 333.8484,-682.5 333.8484,-682.5 804.0053,-682.5 870.7882,-682.5 942.4557,-649.3065 985.0056,-625.6821"/>
<polygon fill="#000000" stroke="#000000" points="986.9104,-628.6258 993.8882,-620.6532 983.4616,-622.5343 986.9104,-628.6258"/>
<text text-anchor="middle" x="576.3229" y="-686.7" font-family="Times,serif" font-size="14.00" fill="#000000">Resume [Function]</text>
</g>
<!-- PowerOn -->
<g id="node9" class="node">
<title>PowerOn</title>
<path fill="none" stroke="#000000" d="M52.6,-217.5C52.6,-217.5 97.471,-217.5 97.471,-217.5 103.471,-217.5 109.471,-223.5 109.471,-229.5 109.471,-229.5 109.471,-241.5 109.471,-241.5 109.471,-247.5 103.471,-253.5 97.471,-253.5 97.471,-253.5 52.6,-253.5 52.6,-253.5 46.6,-253.5 40.6,-247.5 40.6,-241.5 40.6,-241.5 40.6,-229.5 40.6,-229.5 40.6,-223.5 46.6,-217.5 52.6,-217.5"/>
<text text-anchor="middle" x="75.0355" y="-231.4" font-family="Times,serif" font-size="14.00" fill="#000000">PowerOn</text>
</g>
<!-- ServerOpen -->
<g id="node10" class="node">
<title>ServerOpen</title>
<path fill="none" stroke="#000000" d="M304.4213,-486.5C304.4213,-486.5 363.2755,-486.5 363.2755,-486.5 369.2755,-486.5 375.2755,-492.5 375.2755,-498.5 375.2755,-498.5 375.2755,-510.5 375.2755,-510.5 375.2755,-516.5 369.2755,-522.5 363.2755,-522.5 363.2755,-522.5 304.4213,-522.5 304.4213,-522.5 298.4213,-522.5 292.4213,-516.5 292.4213,-510.5 292.4213,-510.5 292.4213,-498.5 292.4213,-498.5 292.4213,-492.5 298.4213,-486.5 304.4213,-486.5"/>
<text text-anchor="middle" x="333.8484" y="-500.4" font-family="Times,serif" font-size="14.00" fill="#000000">ServerOpen</text>
</g>
<!-- PowerOn&#45;&gt;ServerOpen -->
<g id="edge1" class="edge">
<title>PowerOn-&gt;ServerOpen</title>
<path fill="none" stroke="#000000" d="M92.4188,-253.5675C137.2493,-300.1626 256.9062,-424.5293 309.0183,-478.6926"/>
<polygon fill="#000000" stroke="#000000" points="306.7444,-481.3773 316.1999,-486.1569 311.7888,-476.524 306.7444,-481.3773"/>
<text text-anchor="middle" x="192.1979" y="-420.7" font-family="Times,serif" font-size="14.00" fill="#000000">OpenServer [Function]</text>
</g>
<!-- ServerOpenFailed -->
<g id="node11" class="node">
<title>ServerOpenFailed</title>
<path fill="none" stroke="#000000" d="M286.9248,-.5C286.9248,-.5 380.772,-.5 380.772,-.5 386.772,-.5 392.772,-6.5 392.772,-12.5 392.772,-12.5 392.772,-24.5 392.772,-24.5 392.772,-30.5 386.772,-36.5 380.772,-36.5 380.772,-36.5 286.9248,-36.5 286.9248,-36.5 280.9248,-36.5 274.9248,-30.5 274.9248,-24.5 274.9248,-24.5 274.9248,-12.5 274.9248,-12.5 274.9248,-6.5 280.9248,-.5 286.9248,-.5"/>
<text text-anchor="middle" x="333.8484" y="-14.4" font-family="Times,serif" font-size="14.00" fill="#000000">ServerOpenFailed</text>
</g>
<!-- PowerOn&#45;&gt;ServerOpenFailed -->
<g id="edge2" class="edge">
<title>PowerOn-&gt;ServerOpenFailed</title>
<path fill="none" stroke="#000000" d="M76.7183,-217.4155C80.4676,-187.2871 92.179,-126.6824 127.471,-91.7 164.2446,-55.249 220.3049,-36.8644 264.721,-27.6401"/>
<polygon fill="#000000" stroke="#000000" points="265.4485,-31.0641 274.5854,-25.7005 264.0979,-24.1957 265.4485,-31.0641"/>
<text text-anchor="middle" x="192.1979" y="-96.7" font-family="Times,serif" font-size="14.00" fill="#000000">OpenServer [Function]</text>
</g>
<!-- ServerOpen&#45;&gt;Idle -->
<g id="edge3" class="edge">
<title>ServerOpen-&gt;Idle</title>
<path fill="none" stroke="#000000" d="M371.2193,-522.5552C407.2644,-537.2131 462.3972,-552.2039 504.4726,-530.5 520.1084,-522.4345 545.0835,-483.4665 561.0881,-456.3634"/>
<polygon fill="#000000" stroke="#000000" points="564.1326,-458.0904 566.1454,-447.6885 558.0852,-454.5648 564.1326,-458.0904"/>
<text text-anchor="middle" x="457.6223" y="-544.7" font-family="Times,serif" font-size="14.00" fill="#000000">Connect</text>
</g>
<!-- Idle&#45;&gt;InitializeFailed -->
<g id="edge5" class="edge">
<title>Idle-&gt;InitializeFailed</title>
<path fill="none" stroke="#000000" d="M549.2064,-421.3183C539.6637,-417.2779 529.5618,-411.5054 522.4726,-403.5 506.0359,-384.9388 522.7398,-367.4629 504.4726,-350.7 472.8625,-321.6931 439.712,-359.1714 410.772,-327.5 375.2823,-288.6608 424.4815,-252.4823 392.772,-210.5 392.3015,-209.8771 391.8132,-209.2681 391.3085,-208.6727"/>
<polygon fill="#000000" stroke="#000000" points="393.5921,-206.0148 383.926,-201.677 388.7772,-211.0959 393.5921,-206.0148"/>
<text text-anchor="middle" x="457.6223" y="-354.7" font-family="Times,serif" font-size="14.00" fill="#000000">Init [Function]</text>
</g>
<!-- Idle&#45;&gt;ResetFailed -->
<g id="edge7" class="edge">
<title>Idle-&gt;ResetFailed</title>
<path fill="none" stroke="#000000" d="M603.3882,-421.2726C612.925,-417.227 623.0362,-411.4628 630.1732,-403.5 646.1604,-385.6628 630.3973,-368.7553 648.1732,-352.7 680.5095,-323.4935 703.5888,-347.1464 743.4292,-329.5 753.6361,-324.9791 763.9759,-318.7286 773.1538,-312.4694"/>
<polygon fill="#000000" stroke="#000000" points="775.4156,-315.1565 781.555,-306.5218 771.3709,-309.4433 775.4156,-315.1565"/>
<text text-anchor="middle" x="695.8012" y="-356.7" font-family="Times,serif" font-size="14.00" fill="#000000">Reset [Function]</text>
</g>
<!-- Idle&#45;&gt;Idle -->
<g id="edge8" class="edge">
<title>Idle-&gt;Idle</title>
<path fill="none" stroke="#000000" d="M555.1108,-447.5287C551.5061,-457.1943 558.5768,-466 576.3229,-466 587.4142,-466 594.3354,-462.5603 597.0866,-457.6207"/>
<polygon fill="#000000" stroke="#000000" points="600.5876,-457.6742 597.535,-447.5287 593.5945,-457.3634 600.5876,-457.6742"/>
<text text-anchor="middle" x="576.3229" y="-470.2" font-family="Times,serif" font-size="14.00" fill="#000000">Reset [Function]</text>
</g>
<!-- Ready -->
<g id="node13" class="node">
<title>Ready</title>
<path fill="none" stroke="#000000" d="M789.0053,-484.5C789.0053,-484.5 819.0053,-484.5 819.0053,-484.5 825.0053,-484.5 831.0053,-490.5 831.0053,-496.5 831.0053,-496.5 831.0053,-508.5 831.0053,-508.5 831.0053,-514.5 825.0053,-520.5 819.0053,-520.5 819.0053,-520.5 789.0053,-520.5 789.0053,-520.5 783.0053,-520.5 777.0053,-514.5 777.0053,-508.5 777.0053,-508.5 777.0053,-496.5 777.0053,-496.5 777.0053,-490.5 783.0053,-484.5 789.0053,-484.5"/>
<text text-anchor="middle" x="804.0053" y="-498.4" font-family="Times,serif" font-size="14.00" fill="#000000">Ready</text>
</g>
<!-- Idle&#45;&gt;Ready -->
<g id="edge6" class="edge">
<title>Idle-&gt;Ready</title>
<path fill="none" stroke="#000000" d="M603.3702,-447.0931C616.4576,-454.9344 632.6641,-463.6918 648.1732,-469.5 687.2624,-484.139 734.4292,-492.9874 766.56,-497.7846"/>
<polygon fill="#000000" stroke="#000000" points="766.4514,-501.3047 776.8468,-499.2586 767.4444,-494.3754 766.4514,-501.3047"/>
<text text-anchor="middle" x="695.8012" y="-496.7" font-family="Times,serif" font-size="14.00" fill="#000000">Init [Function]</text>
</g>
<!-- Idle&#45;&gt;Abort -->
<g id="edge4" class="edge">
<title>Idle-&gt;Abort</title>
<path fill="none" stroke="#000000" d="M603.6556,-427.1531C666.3571,-422.0827 825.373,-411.0059 958.282,-416.7 1017.8908,-419.2538 1086.874,-425.9188 1128.3376,-430.3289"/>
<polygon fill="#000000" stroke="#000000" points="1128.1985,-433.8341 1138.5158,-431.4251 1128.9481,-426.8743 1128.1985,-433.8341"/>
<text text-anchor="middle" x="911.4317" y="-420.7" font-family="Times,serif" font-size="14.00" fill="#000000">Abort</text>
</g>
<!-- Ready&#45;&gt;StartFailed -->
<g id="edge15" class="edge">
<title>Ready-&gt;StartFailed</title>
<path fill="none" stroke="#000000" d="M776.9994,-508.5513C697.0056,-525.7719 463.5808,-570.726 410.772,-521.5 369.0559,-482.6141 425.2392,-312.3853 392.772,-265.5 389.7661,-261.1592 385.8826,-257.5026 381.5441,-254.4252"/>
<polygon fill="#000000" stroke="#000000" points="383.135,-251.2991 372.7515,-249.1935 379.5556,-257.3148 383.135,-251.2991"/>
<text text-anchor="middle" x="576.3229" y="-547.7" font-family="Times,serif" font-size="14.00" fill="#000000">Start [Function]</text>
</g>
<!-- Ready&#45;&gt;Abort -->
<g id="edge14" class="edge">
<title>Ready-&gt;Abort</title>
<path fill="none" stroke="#000000" d="M831.4285,-504.3466C887.8068,-507.13 1019.8875,-508.3929 1120.6404,-468.5 1126.7344,-466.0871 1132.7182,-462.6115 1138.2327,-458.7938"/>
<polygon fill="#000000" stroke="#000000" points="1140.5648,-461.4196 1146.4605,-452.6168 1136.3621,-455.8217 1140.5648,-461.4196"/>
<text text-anchor="middle" x="1023.1323" y="-503.7" font-family="Times,serif" font-size="14.00" fill="#000000">Abort</text>
</g>
<!-- Ready&#45;&gt;Running -->
<g id="edge16" class="edge">
<title>Ready-&gt;Running</title>
<path fill="none" stroke="#000000" d="M831.1399,-507.259C872.3922,-514.6297 947.2772,-528.592 958.282,-534.7 976.497,-544.8099 992.6983,-561.741 1004.3515,-576.1541"/>
<polygon fill="#000000" stroke="#000000" points="1001.767,-578.5322 1010.668,-584.2787 1007.2934,-574.2357 1001.767,-578.5322"/>
<text text-anchor="middle" x="911.4317" y="-538.7" font-family="Times,serif" font-size="14.00" fill="#000000">Start [Function]</text>
</g>
<!-- Abort&#45;&gt;ResetFailed -->
<g id="edge12" class="edge">
<title>Abort-&gt;ResetFailed</title>
<path fill="none" stroke="#000000" d="M1143.5925,-416.3655C1136.5402,-411.1139 1128.514,-405.6771 1120.6404,-401.5 1073.4543,-376.4666 931.8835,-329.4659 855.0129,-304.7065"/>
<polygon fill="#000000" stroke="#000000" points="855.656,-301.2369 845.0646,-301.51 853.5146,-307.9013 855.656,-301.2369"/>
<text text-anchor="middle" x="1023.1323" y="-381.7" font-family="Times,serif" font-size="14.00" fill="#000000">Reset [Function]</text>
</g>
<!-- Abort&#45;&gt;Idle -->
<g id="edge13" class="edge">
<title>Abort-&gt;Idle</title>
<path fill="none" stroke="#000000" d="M1138.5711,-438.7001C1132.6752,-439.4494 1126.46,-440.1137 1120.6404,-440.5 1106.1577,-441.4613 1102.4968,-440.599 1087.9826,-440.5 892.4981,-439.1666 843.4934,-442.622 648.1732,-434.5 637.0014,-434.0354 624.8676,-433.2854 613.807,-432.5059"/>
<polygon fill="#000000" stroke="#000000" points="613.8268,-428.9981 603.5977,-431.758 613.3152,-435.9794 613.8268,-428.9981"/>
<text text-anchor="middle" x="911.4317" y="-443.7" font-family="Times,serif" font-size="14.00" fill="#000000">Reset [Function]</text>
</g>
<!-- Abort&#45;&gt;Abort -->
<g id="edge11" class="edge">
<title>Abort-&gt;Abort</title>
<path fill="none" stroke="#000000" d="M1154.8546,-452.5287C1153.0217,-462.1943 1156.617,-471 1165.6404,-471 1171.28,-471 1174.7993,-467.5603 1176.1982,-462.6207"/>
<polygon fill="#000000" stroke="#000000" points="1179.6994,-462.6052 1176.4262,-452.5287 1172.7012,-462.4471 1179.6994,-462.6052"/>
<text text-anchor="middle" x="1165.6404" y="-475.2" font-family="Times,serif" font-size="14.00" fill="#000000">Abort</text>
</g>
<!-- Running&#45;&gt;PauseFailed -->
<g id="edge20" class="edge">
<title>Running-&gt;PauseFailed</title>
<path fill="none" stroke="#000000" d="M990.6938,-610.9171C980.4043,-613.205 968.9334,-615.3634 958.282,-616.5 897.6377,-622.9715 452.7927,-621.7026 410.772,-577.5 379.658,-544.7704 406.2588,-520.5977 392.772,-477.5 381.3614,-441.037 362.134,-401.3807 348.7588,-375.7998"/>
<polygon fill="#000000" stroke="#000000" points="351.7227,-373.918 343.9476,-366.7209 345.5375,-377.1958 351.7227,-373.918"/>
<text text-anchor="middle" x="695.8012" y="-621.7" font-family="Times,serif" font-size="14.00" fill="#000000">Pause [Function]</text>
</g>
<!-- Running&#45;&gt;EndFailed -->
<g id="edge22" class="edge">
<title>Running-&gt;EndFailed</title>
<path fill="none" stroke="#000000" d="M990.9705,-600.7458C867.6204,-593.8668 430.6587,-568.0511 410.772,-546.5 376.6056,-509.4739 421.6463,-361.7862 392.772,-320.5 389.3429,-315.5969 384.7963,-311.5658 379.7443,-308.2559"/>
<polygon fill="#000000" stroke="#000000" points="381.3165,-305.1257 370.8732,-303.3401 377.9236,-311.2485 381.3165,-305.1257"/>
<text text-anchor="middle" x="695.8012" y="-588.7" font-family="Times,serif" font-size="14.00" fill="#000000">End [Function]</text>
</g>
<!-- Running&#45;&gt;Paused -->
<g id="edge21" class="edge">
<title>Running-&gt;Paused</title>
<path fill="none" stroke="#000000" d="M1015.4648,-620.6861C1005.4765,-642.1264 985.9611,-677.2678 958.282,-696.5 900.2015,-736.8558 874.7297,-735.5 804.0053,-735.5 333.8484,-735.5 333.8484,-735.5 333.8484,-735.5 240.5017,-735.5 208.6867,-742.5175 127.471,-696.5 113.5595,-688.6176 101.4364,-675.6641 92.3615,-663.8996"/>
<polygon fill="#000000" stroke="#000000" points="95.0411,-661.6347 86.3102,-655.6328 89.3927,-665.7693 95.0411,-661.6347"/>
<text text-anchor="middle" x="576.3229" y="-739.7" font-family="Times,serif" font-size="14.00" fill="#000000">Pause [Function]</text>
</g>
<!-- Running&#45;&gt;Idle -->
<g id="edge23" class="edge">
<title>Running-&gt;Idle</title>
<path fill="none" stroke="#000000" d="M990.733,-595.3833C902.4192,-575.9086 663.056,-522.5863 648.1732,-513.5 624.8425,-499.256 605.2303,-474.8572 592.4217,-456.0139"/>
<polygon fill="#000000" stroke="#000000" points="595.2738,-453.9808 586.8603,-447.5416 589.4219,-457.8221 595.2738,-453.9808"/>
<text text-anchor="middle" x="804.0053" y="-567.7" font-family="Times,serif" font-size="14.00" fill="#000000">End [Function]</text>
</g>
<!-- Running&#45;&gt;Abort -->
<g id="edge19" class="edge">
<title>Running-&gt;Abort</title>
<path fill="none" stroke="#000000" d="M1047.2033,-584.4599C1068.2784,-567.8598 1098.8521,-541.7489 1120.6404,-514.5 1133.4968,-498.4215 1144.8372,-478.1979 1152.9177,-462.1072"/>
<polygon fill="#000000" stroke="#000000" points="1156.27,-463.2184 1157.5121,-452.6966 1149.9797,-460.1473 1156.27,-463.2184"/>
<text text-anchor="middle" x="1104.3115" y="-552.7" font-family="Times,serif" font-size="14.00" fill="#000000">Abort</text>
</g>
<!-- init -->
<g id="node16" class="node">
<title>init</title>
<ellipse fill="#000000" stroke="#000000" cx="1.8" cy="-235.5" rx="1.8" ry="1.8"/>
</g>
<!-- init&#45;&gt;PowerOn -->
<g id="edge38" class="edge">
<title>init-&gt;PowerOn</title>
<path fill="none" stroke="#000000" d="M3.6103,-235.5C7.7403,-235.5 18.4243,-235.5 30.3081,-235.5"/>
<polygon fill="#000000" stroke="#000000" points="30.4551,-239.0001 40.4551,-235.5 30.4551,-232.0001 30.4551,-239.0001"/>
</g>
</g>
</svg>